# xmcd
#
# Track frame offsets: 
#        150
#        9112
#        26681
#        41293
#        72954
#        91199
#        111728
#        132382
#        152876
#        175296
#        178433
#        197649
#        217635
#        225809
#        241168
#        263204
#        293245
#        317765
#        335149
#
# Disc length: 4531 seconds
#
# Revision: 0
# Processed by: cddbd v1.5.2PL0 Copyright (c) Steve Scherf et al.
# Submitted via: ExactAudioCopy v0.95b4
#
DISCID=0911b113
DTITLE=Wyclef Jean - The Ecleftic CD1
DYEAR=1900
DGENRE=R&B
TTITLE0=Columbia Records
TTITLE1=Where Fugees At?
TTITLE2=Kenny Rogers - Pharoahe Monc..
TTITLE3=Tug Angels
TTITLE4=It Doesn't Matter
TTITLE5=911
TTITLE6=Pullin' Me In
TTITLE7=Da Cypha
TTITLE8=Runaway
TTITLE9=Red Light District
TTITLE10=Perfect Gentleman
TTITLE11=Low Income
TTITLE12=Whitney Houston Dub Plate
TTITLE13=However You Want It
TTITLE14=Hollyhood To Hollywood
TTITLE15=Diallo
TTITLE16=Something About Mary
TTITLE17=Wish You Were Here
TTITLE18=Bus Search
EXTD=
EXTT0=
EXTT1=
EXTT2=
EXTT3=
EXTT4=
EXTT5=
EXTT6=
EXTT7=
EXTT8=
EXTT9=
EXTT10=
EXTT11=
EXTT12=
EXTT13=
EXTT14=
EXTT15=
EXTT16=
EXTT17=
EXTT18=
PLAYORDER=
